# xmcd
#
# Track frame offsets: 
#        150
#        23852
#        39779
#        52847
#        67680
#        83263
#        84451
#        101531
#        119123
#        137976
#        161323
#        180759
#        189669
#        214636
#        230601
#
# Disc length: 3379 seconds
#
# Revision: 0
# Processed by: cddbd v1.5.1PL2 Copyright (c) Steve Scherf et al.
# Submitted via: ExactAudioCopy v0.95b3
#
DISCID=af0d310f
DTITLE=George Thorogood and the Destroyers - Anthology [CD2]
DYEAR=2001
DGENRE=Blues
TTITLE0=Who Do You Love
TTITLE1=Born To Be Bad
TTITLE2=You Talk Too Much
TTITLE3=I´m Ready
TTITLE4=Shake Your Money Maker
TTITLE5=If You Don´t Start Drinking (I´m Gonna Leave)
TTITLE6=Hello Little Girl
TTITLE7=Long Distance Lover
TTITLE8=Get A Haircut
TTITLE9=Howlin´ For My Baby
TTITLE10=Christine
TTITLE11=Let´s Work Together
TTITLE12=Johnny B. Goode
TTITLE13=Rockin´ My Life Away
TTITLE14=I Don´t Trust Nobody
EXTD=
EXTT0=
EXTT1=
EXTT2=
EXTT3=
EXTT4=
EXTT5=
EXTT6=
EXTT7=
EXTT8=
EXTT9=
EXTT10=
EXTT11=
EXTT12=
EXTT13=
EXTT14=
PLAYORDER=
